<?xml version="1.0" encoding="UTF-8"?>
<svg width="90pt" height="70pt" version="1.1" viewBox="0 0 752 752" xmlns="http://www.w3.org/2000/svg">
 <g>
  <path d="m231.71 228c-24.469 0-44.398 19.945-44.398 44.414v266.4c0.007812 0.25 0.027344 0.49219 0.058594 0.73828 0.41797 24.105 20.148 43.633 44.355 43.633h244.16c4.1094 0.015625 7.4453-3.3203 7.4297-7.4297v-207.16c0-4.0859-3.3125-7.3984-7.3984-7.3984-4.0859 0-7.3984 3.3125-7.3984 7.3984l-0.015625 125.79-236.79 0.003906c-11.375 0-21.73 4.3477-29.598 11.418v-233.39c0-16.527 13.074-29.613 29.598-29.613h135.45c4.082-0.007813 7.3867-3.3164 7.3867-7.3984s-3.3047-7.3906-7.3867-7.3984zm0 281.19h236.79v59.195l-236.79 0.003906c-16.523 0-29.598-13.078-29.598-29.598s13.074-29.598 29.598-29.598z"/>
  <path d="m475.9 168.81c-48.941 0-88.797 39.867-88.797 88.824 0 48.957 39.855 88.77 88.797 88.77 48.941 0 88.797-39.812 88.797-88.77 0-48.957-39.855-88.824-88.797-88.824zm0 14.805c40.945 0 73.996 33.062 73.996 74.02 0 40.957-33.051 74.02-73.996 74.02-40.945 0-73.996-33.062-73.996-74.02 0-40.957 33.051-74.02 73.996-74.02z"/>
  <path d="m475.83 213.21c-4.0898 0.027344-7.3711 3.3906-7.3281 7.4844v29.523h-29.555c-4.9648-0.015625-7.4453 3.6914-7.4453 7.3984s2.4805 7.418 7.4453 7.3984h29.555v29.578c0 4.9414 3.6992 7.4102 7.3984 7.4102 3.6992 0 7.3984-2.4688 7.3984-7.4102v-29.578h29.555c4.9648 0.015625 7.4453-3.6914 7.4453-7.3984s-2.4805-7.418-7.4453-7.3984h-29.555v-29.523c0.042969-4.1523-3.3281-7.5273-7.4727-7.4844z"/>
 </g>
</svg>
